<svg width="18" height="18" viewBox="0 0 18 18" fill="none" xmlns="http://www.w3.org/2000/svg">
<path d="M8.71875 0C13.5 0 17.4375 3.9375 17.4375 8.71875C17.4375 13.5352 13.5 17.4375 8.71875 17.4375C3.90234 17.4375 0 13.5352 0 8.71875C0 3.9375 3.90234 0 8.71875 0ZM13.6758 3.76172C11.1094 1.19531 7.10156 1.05469 4.35938 3.19922L14.2383 13.0781C16.3828 10.3359 16.2422 6.32812 13.6758 3.76172ZM3.72656 13.7109C6.29297 16.2773 10.3008 16.418 13.043 14.2734L3.16406 4.39453C1.01953 7.13672 1.16016 11.1445 3.72656 13.7109Z" fill="#ACACB7"/>
</svg>
