<svg width="16" height="16" viewBox="0 0 16 16" fill="none" xmlns="http://www.w3.org/2000/svg">
<path d="M13.7188 7.21875C13.75 7.625 13.75 8.03125 13.7188 8.40625L14.7188 9C15 9.15625 15.1562 9.5 15.0625 9.84375C14.7188 11.1562 14 12.3438 13.0625 13.3125C12.8125 13.5312 12.4375 13.5938 12.1562 13.4375L11.1562 12.8438C10.9062 13.0312 10.4375 13.3125 10.125 13.4375V14.5938C10.125 14.9375 9.90625 15.2188 9.5625 15.3125C8.28125 15.6562 6.875 15.6562 5.59375 15.3125C5.28125 15.25 5.03125 14.9062 5.03125 14.5938V13.4375C4.71875 13.3125 4.25 13.0312 4 12.8438L3 13.4375C2.71875 13.5938 2.34375 13.5312 2.09375 13.3125C1.15625 12.3438 0.4375 11.1562 0.09375 9.84375C0 9.5 0.15625 9.15625 0.4375 9L1.4375 8.40625C1.40625 8.25 1.40625 8 1.40625 7.8125C1.40625 7.65625 1.40625 7.40625 1.4375 7.21875L0.4375 6.65625C0.15625 6.5 0 6.15625 0.09375 5.8125C0.4375 4.5 1.15625 3.3125 2.09375 2.34375C2.34375 2.125 2.71875 2.0625 3 2.21875L4 2.8125C4.25 2.625 4.71875 2.34375 5.03125 2.21875V1.0625C5.03125 0.71875 5.25 0.4375 5.59375 0.34375C6.875 0 8.28125 0 9.5625 0.34375C9.875 0.40625 10.125 0.75 10.125 1.0625V2.21875C10.4375 2.34375 10.9062 2.625 11.1562 2.8125L12.1562 2.21875C12.4375 2.0625 12.8125 2.125 13.0625 2.34375C14 3.3125 14.7188 4.5 15.0625 5.8125C15.1562 6.15625 15 6.5 14.7188 6.65625L13.7188 7.21875ZM12.0625 9.21875C12.3125 7.90625 12.3125 7.75 12.0625 6.4375L13.4375 5.65625C13.25 5.09375 12.75 4.28125 12.375 3.84375L11 4.625C10.0312 3.78125 9.875 3.6875 8.625 3.25V1.65625C8.34375 1.625 7.875 1.5625 7.59375 1.5625C7.28125 1.5625 6.8125 1.625 6.53125 1.65625V3.25C5.28125 3.6875 5.15625 3.78125 4.15625 4.625L2.78125 3.84375C2.3125 4.375 1.96875 5 1.71875 5.65625L3.09375 6.4375C2.84375 7.75 2.84375 7.90625 3.09375 9.21875L1.71875 10C1.90625 10.5625 2.40625 11.375 2.78125 11.8125L4.15625 11.0312C5.125 11.875 5.28125 11.9688 6.53125 12.4062V14C6.8125 14.0312 7.28125 14.0938 7.59375 14.0938C7.875 14.0938 8.34375 14.0312 8.625 14V12.4062C9.875 11.9688 10 11.875 11 11.0312L12.375 11.8125C12.75 11.375 13.25 10.5625 13.4375 10L12.0625 9.21875ZM7.59375 4.8125C9.21875 4.8125 10.5938 6.1875 10.5938 7.8125C10.5938 9.46875 9.21875 10.8125 7.59375 10.8125C5.9375 10.8125 4.59375 9.46875 4.59375 7.8125C4.59375 6.1875 5.9375 4.8125 7.59375 4.8125ZM7.59375 9.3125C8.40625 9.3125 9.09375 8.65625 9.09375 7.8125C9.09375 7 8.40625 6.3125 7.59375 6.3125C6.75 6.3125 6.09375 7 6.09375 7.8125C6.09375 8.65625 6.75 9.3125 7.59375 9.3125Z" fill="white"/>
</svg>
